<svg xmlns="http://www.w3.org/2000/svg" xmlns:xlink="http://www.w3.org/1999/xlink" width="309" height="53"><defs><linearGradient id="c" x1="73.818%" x2="-9.969%" y1="54.459%" y2="47.347%"><stop offset="0%" stop-color="#FFA703"/><stop offset="100%" stop-color="#CC570E"/></linearGradient><filter id="a" width="194.3%" height="382.5%" x="-40.6%" y="-92.5%" filterUnits="objectBoundingBox"><feOffset dx="4" dy="10" in="SourceAlpha" result="shadowOffsetOuter1"/><feGaussianBlur in="shadowOffsetOuter1" result="shadowBlurOuter1" stdDeviation="8"/><feColorMatrix in="shadowBlurOuter1" values="0 0 0 0 0 0 0 0 0 0 0 0 0 0 0 0 0 0 0.24 0"/></filter><path id="b" d="M132.952 0h41.71c2.273 0 3.97.408 5.405 1.175a7.992 7.992 0 013.326 3.327c.767 1.434 1.175 3.131 1.175 5.405v.72c0 2.273-.408 3.97-1.175 5.404a7.992 7.992 0 01-3.326 3.327c-1.435.767-3.132 1.175-5.405 1.175h-41.71c-2.273 0-3.97-.408-5.405-1.175a7.986 7.986 0 01-3.326-3.327c-.767-1.434-1.175-3.13-1.175-5.404v-.72c0-2.274.408-3.971 1.175-5.405a7.998 7.998 0 013.326-3.327C128.982.408 130.68 0 132.952 0z"/></defs><g transform="translate(0 6)" fill="none" fill-rule="evenodd"><ellipse cx="10.254" cy="10.267" fill="#FFF" rx="10.254" ry="10.267"/><ellipse cx="71.777" cy="10.267" fill="#FFF" rx="10.254" ry="10.267"/><ellipse cx="235.837" cy="10.267" fill="#FFF" rx="10.254" ry="10.267"/><ellipse cx="297.837" cy="10.267" fill="#FFF" rx="10.254" ry="10.267"/><use fill="#000" filter="url(#a)" xlink:href="#b"/><use fill="url(#c)" xlink:href="#b"/></g></svg>