<svg xmlns="http://www.w3.org/2000/svg" width="474" height="486"><defs><linearGradient id="a" x1="74.17%" x2="43.137%" y1="102.426%" y2="0%"><stop offset="0%" stop-color="#FF6D12"/><stop offset="100%" stop-color="#FFA703"/></linearGradient><linearGradient id="c" x1="72.823%" x2="42.082%" y1="101.154%" y2="1.255%"><stop offset="0%" stop-color="#AB2E00"/><stop offset="100%" stop-color="#FC0"/></linearGradient><filter id="b" width="113.1%" height="110.7%" x="-7.7%" y="-5.4%" filterUnits="objectBoundingBox"><feGaussianBlur in="SourceGraphic" stdDeviation="4"/></filter></defs><g fill="none" fill-rule="evenodd" stroke-dasharray="4 82"><path stroke="#FFF" stroke-width="24" d="M243 462c120.95 0 219-98.05 219-219S363.95 24 243 24 24 122.05 24 243s98.05 219 219 219z" opacity=".3"/><path stroke="url(#a)" stroke-linejoin="round" stroke-width="23" d="M304.528 17.33C278.252 6.172 249.347 0 219 0 98.05 0 0 98.05 0 219s98.05 219 219 219" filter="url(#b)" transform="translate(24 24)"/><path stroke="url(#c)" stroke-linejoin="round" stroke-width="24" d="M304.528 17.33C278.252 6.172 249.347 0 219 0 98.05 0 0 98.05 0 219s102.695 219 223.646 219" transform="translate(24 24)"/></g></svg>