<svg xmlns="http://www.w3.org/2000/svg" xmlns:xlink="http://www.w3.org/1999/xlink" width="155" height="154" viewBox="0 0 155 154">
    <defs>
        <linearGradient id="386ga0p6bc" x1="99.875%" x2=".125%" y1="100%" y2="0%">
            <stop offset="0%" stop-color="#032954"/>
            <stop offset="100%" stop-color="#031D38"/>
        </linearGradient>
        <linearGradient id="jyt0bc7y4d" x1="42.524%" x2="62.469%" y1="17.425%" y2="97.35%">
            <stop offset="0%" stop-color="#969FAD"/>
            <stop offset="100%" stop-color="#FFF"/>
        </linearGradient>
        <filter id="v8susjyjha" width="181.3%" height="181.2%" x="-40.6%" y="-40.6%" filterUnits="objectBoundingBox">
            <feOffset dx="9" dy="9" in="SourceAlpha" result="shadowOffsetOuter1"/>
            <feGaussianBlur in="shadowOffsetOuter1" result="shadowBlurOuter1" stdDeviation="9"/>
            <feColorMatrix in="shadowBlurOuter1" result="shadowMatrixOuter1" values="0 0 0 0 0 0 0 0 0 0 0 0 0 0 0 0 0 0 1 0"/>
            <feOffset dx="-9" dy="-9" in="SourceAlpha" result="shadowOffsetOuter2"/>
            <feGaussianBlur in="shadowOffsetOuter2" result="shadowBlurOuter2" stdDeviation="9"/>
            <feColorMatrix in="shadowBlurOuter2" result="shadowMatrixOuter2" values="0 0 0 0 0.0672 0 0 0 0 0.2982 0 0 0 0 0.56 0 0 0 1 0"/>
            <feMerge>
                <feMergeNode in="shadowMatrixOuter1"/>
                <feMergeNode in="shadowMatrixOuter2"/>
            </feMerge>
        </filter>
        <path id="k7879nz16b" d="M49.839 99.803C22.314 99.803 0 77.461 0 49.902 0 22.342 22.314 0 49.839 0s49.839 22.342 49.839 49.902c0 27.559-22.314 49.901-49.839 49.901z"/>
    </defs>
    <g fill="none" fill-rule="evenodd">
        <g>
            <g>
                <g>
                    <g transform="translate(-1757 -1112) translate(636 975) matrix(-1 0 0 1 1248.299 164) matrix(-1 0 0 1 99.678 0)">
                        <use fill="#000" filter="url(#v8susjyjha)" xlink:href="#k7879nz16b"/>
                        <use fill="url(#386ga0p6bc)" xlink:href="#k7879nz16b"/>
                    </g>
                    <path fill="url(#jyt0bc7y4d)" d="M56.607 22.683L29.733 49.589 56.607 76.496z" transform="translate(-1757 -1112) translate(636 975) matrix(-1 0 0 1 1248.299 164)"/>
                </g>
            </g>
        </g>
    </g>
</svg>
